<?xml version="1.0" standalone="no"?>
<!DOCTYPE svg PUBLIC "-//W3C//DTD SVG 20010904//EN"
 "http://www.w3.org/TR/2001/REC-SVG-20010904/DTD/svg10.dtd">
<svg version="1.0" xmlns="http://www.w3.org/2000/svg"
 width="50.000000pt" height="50.000000pt" viewBox="0 0 50.000000 50.000000"
 preserveAspectRatio="xMidYMid meet">

<g transform="translate(0.000000,50.000000) scale(0.100000,-0.100000)"
fill="#000000" stroke="none">
<path d="M124 408 c-12 -5 -27 -21 -33 -34 -13 -30 -15 -184 -2 -184 5 0 11
38 12 85 5 117 9 120 149 120 145 0 145 0 145 -146 l0 -111 -30 -24 c-28 -22
-28 -24 -8 -24 12 0 31 12 42 26 18 23 21 41 21 130 0 113 -10 146 -47 163
-30 14 -220 13 -249 -1z"/>
<path d="M330 345 c0 -8 7 -15 15 -15 8 0 15 7 15 15 0 8 -7 15 -15 15 -8 0
-15 -7 -15 -15z"/>
<path d="M210 328 c-72 -38 -55 -139 26 -154 45 -8 72 3 90 37 39 75 -41 156
-116 117z m82 -35 c39 -35 11 -103 -43 -103 -35 0 -59 24 -59 57 0 55 62 83
102 46z"/>
</g>
</svg>
